<?xml version="1.0" encoding="UTF-8"?>
<svg version="1.1" xmlns="http://www.w3.org/2000/svg" width="512" height="512">
<path d="M0 0 C84.15 0 168.3 0 255 0 C253.85128248 20.67691539 253.85128248 20.67691539 253.0892334 29.07695007 C252.96037821 30.53818864 252.96037821 30.53818864 252.82891989 32.02894717 C252.54695539 35.21836603 252.26081565 38.40739478 251.97460938 41.59643555 C251.7689405 43.91280436 251.56352902 46.22919603 251.35835266 48.54560852 C250.80531376 54.78059674 250.2485759 61.01524942 249.69102669 67.24983573 C249.10633538 73.79397412 248.52476283 80.33838977 247.94274902 86.88276672 C246.96644516 97.85652763 245.98759006 108.83005916 245.00732422 119.8034668 C244.00007295 131.07897287 242.99514602 142.35468308 241.99267578 153.63061523 C240.78086673 167.26117326 239.56719649 180.89156394 238.35176086 194.52179909 C237.88862527 199.71575132 237.42617935 204.90976428 236.96427917 210.10382652 C236.42100262 216.21163559 235.87584953 222.31927435 235.32924461 228.42678642 C235.12905786 230.66687072 234.9295043 232.90701171 234.73063087 235.14721298 C234.45907379 238.20492296 234.18521374 241.26241825 233.9107666 244.31987 C233.79359417 245.64826362 233.79359417 245.64826362 233.67405462 247.00349349 C233.25009384 251.69627909 232.71289095 256.34208929 232 261 C226.46410242 263.15434624 220.94598922 264.95334498 215.21655273 266.51196289 C214.37806793 266.74327408 213.53958313 266.97458527 212.6756897 267.21290588 C209.92926979 267.9696417 207.18145375 268.72116823 204.43359375 269.47265625 C202.51114397 270.00133029 200.58878722 270.53034271 198.66651917 271.05967712 C193.62150302 272.44799913 188.57529763 273.83194771 183.52880859 275.21490479 C178.40198828 276.62060992 173.27620758 278.03009453 168.15039062 279.43945312 C162.38476038 281.02469821 156.61904749 282.60962975 150.85240173 284.19117737 C149.97367905 284.43228241 149.09495636 284.67338745 148.18960571 284.92179871 C146.56088927 285.36863962 144.9320963 285.81520173 143.3032074 286.26141357 C142.57311462 286.46176712 141.84302185 286.66212067 141.09080505 286.86854553 C140.39344679 287.0560544 139.69608852 287.24356327 138.97759819 287.43675423 C137.1382973 287.96061112 135.32767363 288.58241905 133.5216217 289.21141052 C126.2299674 290.84421562 119.21553316 288.72521045 112.16650391 286.73095703 C111.33429825 286.50154419 110.50209259 286.27213135 109.64466858 286.0357666 C106.92011241 285.28296571 104.1983757 284.52046533 101.4765625 283.7578125 C99.56538522 283.22773244 97.65403569 282.69827305 95.74252319 282.16940308 C90.72440756 280.77926071 85.70862028 279.38089567 80.69329834 277.98071289 C75.61458784 276.56431932 70.53379201 275.15544989 65.453125 273.74609375 C59.72808283 272.15751799 54.00326805 270.56815303 48.27993774 268.97341919 C46.97397927 268.60982709 46.97397927 268.60982709 45.6416378 268.23888969 C43.97321007 267.77353692 42.30521365 267.30663428 40.63770485 266.83799934 C35.38696506 265.36609916 30.11934621 263.9954087 24.80819702 262.75558472 C24.211492 262.50624176 23.61478699 262.2568988 23 262 C22.13782259 259.41346776 21.77282428 257.48312134 21.53337002 254.80688572 C21.45474427 253.94791425 21.37611852 253.08894279 21.29511017 252.20394188 C21.21242215 251.25980161 21.12973412 250.31566135 21.04454041 249.34291077 C20.95384783 248.34017685 20.86315525 247.33744293 20.76971442 246.30432314 C20.4653128 242.92852659 20.16614057 239.5522869 19.86694336 236.17602539 C19.65034737 233.7615598 19.4334466 231.34712153 19.21626282 228.93270874 C18.68745537 223.04382574 18.16210737 217.15464029 17.63851159 211.26529218 C17.21255062 206.47464817 16.78529549 201.68412129 16.35711861 196.89367485 C16.29619615 196.21203177 16.23527369 195.53038869 16.1725051 194.82808976 C16.04873369 193.44326404 15.92496122 192.05843841 15.8011877 190.67361289 C14.6396603 177.67583911 13.48285703 164.67764804 12.32748581 151.67932581 C11.27187153 139.80494637 10.21040972 127.93109828 9.14614552 116.05749125 C8.05273174 103.85808418 6.9632706 91.65833 5.87805468 79.45819086 C5.26901527 72.61206292 4.65844425 65.76608014 4.04374504 58.92045784 C3.46505183 52.47526449 2.89195174 46.02958851 2.32253838 39.58356857 C2.11314266 37.22282011 1.90195388 34.86222988 1.68880081 32.5018177 C1.39709413 29.26827465 1.11199898 26.03421147 0.82847595 22.79994202 C0.74355721 21.87587824 0.65863847 20.95181447 0.57114643 19.99974877 C-0.00968778 13.25724033 0 6.83576857 0 0 Z M127 21 C127 31.56 127 42.12 127 53 C100.27 53 73.54 53 46 53 C48.77640698 85.69990442 51.63599353 118.35667795 55 151 C78.76 151 102.52 151 127 151 C127 167.5 127 184 127 201 C112.875 197.0625 112.875 197.0625 108.45263672 195.82446289 C107.29006348 195.5021167 106.12749023 195.17977051 104.9296875 194.84765625 C103.74616699 194.51773682 102.56264648 194.18781738 101.34326172 193.84790039 C98.23655149 193.05999294 95.1680521 192.47457505 92 192 C91.94465088 191.2479126 91.88930176 190.4958252 91.83227539 189.72094727 C91.58040283 186.33442771 91.32154661 182.94847801 91.0625 179.5625 C90.97548828 178.37849609 90.88847656 177.19449219 90.79882812 175.97460938 C90.71181641 174.84990234 90.62480469 173.72519531 90.53515625 172.56640625 C90.41732788 171.00321655 90.41732788 171.00321655 90.29711914 169.40844727 C90.25713121 167.05206105 90.25713121 167.05206105 89 166 C86.6243148 165.9116033 84.27791326 165.88469695 81.90234375 165.90234375 C81.19348526 165.9037587 80.48462677 165.90517365 79.75428772 165.90663147 C77.48198288 165.91224557 75.20977525 165.92480037 72.9375 165.9375 C71.40039204 165.94251319 69.86328255 165.94707641 68.32617188 165.95117188 C64.55074358 165.96221958 60.77538829 165.97949359 57 166 C56.78768382 174.93336413 57.3426615 183.73473077 58.171875 192.61987305 C58.37624574 194.82594708 58.56746291 197.03291122 58.7578125 199.24023438 C58.88723548 200.66673814 59.01741683 202.09317334 59.1484375 203.51953125 C59.26364746 204.78901611 59.37885742 206.05850098 59.49755859 207.36645508 C59.74626709 209.16505981 59.74626709 209.16505981 60 211 C60.10683105 212.82772949 60.10683105 212.82772949 60.21582031 214.69238281 C62.40390511 218.74878303 63.49522145 218.91101155 67.76318359 220.35522461 C70.30479701 221.07008847 72.84158803 221.74936946 75.3984375 222.40234375 C76.75430518 222.7710149 78.10949371 223.1421921 79.46401978 223.51576233 C83.02968139 224.49121329 86.60415921 225.42949011 90.18145752 226.36120605 C93.0975187 227.12732224 96.00619723 227.9194487 98.91486168 228.71311092 C102.38623194 229.65984448 105.86057542 230.59538232 109.3359375 231.52734375 C110.32857164 231.79379354 110.32857164 231.79379354 111.341259 232.06562614 C113.21860895 232.56652892 115.09827503 233.05872649 116.97802734 233.55053711 C118.04677094 233.83142685 119.11551453 234.11231659 120.21664429 234.40171814 C123.17729113 235.14009989 123.17729113 235.14009989 127 235 C127 246.22 127 257.44 127 269 C144.8235911 264.43476423 162.57112186 259.68327972 180.2800293 254.69091797 C183.49893751 253.78381455 186.71872085 252.87996146 189.93903446 251.97786903 C193.05498862 251.10449635 196.17004494 250.22793586 199.28515625 249.3515625 C200.43693863 249.0287027 201.58872101 248.7058429 202.77540588 248.37319946 C203.82929001 248.0755368 204.88317413 247.77787415 205.96899414 247.47119141 C206.89571426 247.21028717 207.82243439 246.94938293 208.77723694 246.68057251 C211.00981486 246.06415895 211.00981486 246.06415895 213 245 C213.44608605 242.10726335 213.75840581 239.28829895 213.99978638 236.37583923 C214.08316627 235.46026908 214.16654617 234.54469893 214.25245273 233.60138422 C214.53166681 230.50965074 214.79724427 227.4168929 215.06298828 224.32397461 C215.25951124 222.116886 215.45686735 219.90987144 215.65499878 217.70292664 C216.19228285 211.69150981 216.71783367 205.67911698 217.24136972 199.66648936 C217.78982124 193.39046962 218.34893869 187.11540072 218.9069519 180.84022522 C219.84266709 170.30116077 220.77175377 159.76152808 221.69580078 149.22143555 C222.64774928 138.36329379 223.60368591 127.50551531 224.56494141 116.64819336 C224.62475547 115.97254068 224.68456954 115.296888 224.74619615 114.600761 C225.26649662 108.72390335 225.78710016 102.84707257 226.30773354 96.97024441 C228.55066657 71.64789206 230.7736847 46.32383149 233 21 C198.02 21 163.04 21 127 21 Z " fill="#FEFEFE" transform="translate(129,160)"/>
<path d="M0 0 C24.09 0 48.18 0 73 0 C73 6.16753914 72.83693799 12.08291629 72.265625 18.19165039 C72.18759644 19.06103241 72.10956787 19.93041443 72.0291748 20.82614136 C71.77325775 23.66700575 71.51167864 26.5073173 71.25 29.34765625 C71.07028648 31.33016327 70.89092997 33.31270269 70.71191406 35.29527283 C70.2420017 40.48884357 69.76726913 45.6819626 69.29150391 50.875 C68.8059861 56.1839786 68.32506627 61.49337351 67.84375 66.80273438 C66.90031245 77.20223359 65.95177801 87.60126103 65 98 C57.11737646 100.22263036 49.23320928 102.43966285 41.34701157 104.64957428 C37.68515153 105.67590909 34.02385255 106.7041607 30.36376953 107.73681641 C26.83131297 108.73338717 23.29747038 109.72489181 19.76261139 110.71290588 C18.4145172 111.09066333 17.06693162 111.47024078 15.71987152 111.85166931 C13.83250899 112.38575183 11.94314842 112.91275828 10.05371094 113.43945312 C8.97893494 113.7414563 7.90415894 114.04345947 6.79681396 114.35461426 C4 115 4 115 0 115 C0 104.44 0 93.88 0 83 C15.57358374 78.20812808 15.57358374 78.20812808 22.5625 76.25 C23.71202148 75.91935547 23.71202148 75.91935547 24.88476562 75.58203125 C28.41534293 74.59260924 31.30618079 74 35 74 C36.32 59.81 37.64 45.62 39 31 C26.13 31 13.26 31 0 31 C0 20.77 0 10.54 0 0 Z " fill="#FEFEFE" transform="translate(257,279)"/>
<path d="M0 0 C26.07 0 52.14 0 79 0 C77.4375 28.125 77.4375 28.125 76 31 C50.92 31 25.84 31 0 31 C0 20.77 0 10.54 0 0 Z " fill="#FEFEFE" transform="translate(257,214)"/>
<path d="M0 0 C4.62 0 9.24 0 14 0 C19.93237719 11.4387592 25.12573484 23.07360651 30 35 C34.77626733 25.67611644 39.29992084 16.28929199 43.47265625 6.67822266 C45.90534738 1.09465262 45.90534738 1.09465262 47 0 C51.62 0 56.24 0 61 0 C61 19.14 61 38.28 61 58 C56.71 58 52.42 58 48 58 C47.67 47.77 47.34 37.54 47 27 C43.42236186 35.18137522 43.42236186 35.18137522 39.84985352 43.36499023 C39.40569092 44.37762939 38.96152832 45.39026855 38.50390625 46.43359375 C37.82050171 47.99678345 37.82050171 47.99678345 37.12329102 49.59155273 C36 52 36 52 35 53 C33.48071962 53.07179964 31.95832518 53.08392007 30.4375 53.0625 C29.61121094 53.05347656 28.78492188 53.04445312 27.93359375 53.03515625 C27.29550781 53.02355469 26.65742188 53.01195312 26 53 C24.76541702 50.5859767 23.53736796 48.16894929 22.3125 45.75 C21.97283203 45.08742187 21.63316406 44.42484375 21.28320312 43.7421875 C18.17330334 37.58051689 15.67867592 31.4288222 13 25 C12.67 35.89 12.34 46.78 12 58 C8.04 58 4.08 58 0 58 C0 38.86 0 19.72 0 0 Z " fill="#FFFFFF" transform="translate(267,84)"/>
<path d="M0 0 C4.62 0 9.24 0 14 0 C14 7.92 14 15.84 14 24 C21.59 24 29.18 24 37 24 C37 16.08 37 8.16 37 0 C41.62 0 46.24 0 51 0 C51 19.14 51 38.28 51 58 C46.38 58 41.76 58 37 58 C37 50.41 37 42.82 37 35 C29.41 35 21.82 35 14 35 C14 42.59 14 50.18 14 58 C9.38 58 4.76 58 0 58 C0 38.86 0 19.72 0 0 Z " fill="#FFFFFF" transform="translate(136,84)"/>
<path d="M0 0 C14.85 0 29.7 0 45 0 C45 10.56 45 21.12 45 32 C31.14 32 17.28 32 3 32 C2.01 21.44 1.02 10.88 0 0 Z " fill="#FEFEFE" transform="translate(211,246)"/>
<path d="M0 0 C15.84 0 31.68 0 48 0 C48 3.63 48 7.26 48 11 C42.39 11 36.78 11 31 11 C31 26.51 31 42.02 31 58 C26.38 58 21.76 58 17 58 C17 42.49 17 26.98 17 11 C11.39 11 5.78 11 0 11 C0 7.37 0 3.74 0 0 Z " fill="#FFFFFF" transform="translate(203,84)"/>
<path d="M0 0 C4.62 0 9.24 0 14 0 C14 16.5 14 33 14 50 C22.25 50 30.5 50 39 50 C39 52.64 39 55.28 39 58 C26.13 58 13.26 58 0 58 C0 38.86 0 19.72 0 0 Z " fill="#FFFFFF" transform="translate(350,84)"/>
</svg>
