<?xml version="1.0" encoding="UTF-8" standalone="no"?>
<!-- Created with Inkscape (http://www.inkscape.org/) -->

<svg
   width="512"
   height="512"
   viewBox="0 0 512 512"
   version="1.1"
   id="svg1"
   xml:space="preserve"
   xmlns="http://www.w3.org/2000/svg"
   xmlns:svg="http://www.w3.org/2000/svg"><defs
     id="defs1" /><g
     id="layer1"
     transform="translate(-0.92753625)"><rect
       style="display:inline;fill:#db2f3d;fill-opacity:1"
       id="rect1"
       width="512"
       height="512"
       x="0.92753625"
       y="0"
       ry="131.71014" /><rect
       style="fill:#ffffff;fill-opacity:1"
       id="rect2"
       width="74.202896"
       height="222.60869"
       x="378.43478"
       y="240.23189"
       ry="27.826094" /><rect
       style="fill:#ffffff;fill-opacity:1;stroke-width:0.974386"
       id="rect2-2"
       width="80.498199"
       height="194.82239"
       x="233.98114"
       y="-454.73703"
       ry="24.352806"
       transform="matrix(-0.011093,0.99993847,-0.99985471,-0.01704601,0,0)" /><path
       d="m 264.13134,69.792628 c -109.97454,0 -199.511719,89.537182 -199.511719,199.511722 0,109.97454 89.537179,199.51172 199.511719,199.51172 84.18405,0 174.69462,-73.4801 185.88672,-150.85157 v -59.85351 c 0,-9.73226 -8.2736,-18.00391 -18.00586,-18.00391 H 276.78369 c -9.73226,0 -18.00586,8.27165 -18.00586,18.00391 v 41.84961 c 0,9.73226 8.2736,18.0039 18.00586,18.0039 h 68.125 c -7.2992,33.5763 -35.03572,51.09571 -80.77735,51.09571 -91.48324,0 -91.9707,-96.34957 -91.9707,-99.75586 0,-59.36679 36.01021,-97.81055 91.9707,-97.81055 40.8755,0 59.36678,20.92578 70.07227,20.92578 3.8929,0 7.7854,-1.94751 10.70508,-4.86718 l 53.52734,-54.01368 c 2.43307,-2.43306 3.40625,-5.3518 3.40625,-8.27148 0,-3.40629 -1.45923,-6.81303 -4.37891,-9.24609 C 362.91385,87.310978 312.79264,69.792628 264.13134,69.792628 Z"
       style="font-size:486.613px;fill:#ffffff;stroke-width:40.551"
       id="path1" /></g></svg>
